<svg width="135" height="44" viewBox="0 0 135 44" fill="none" xmlns="http://www.w3.org/2000/svg">
<path d="M9.48801 43.0379C9.1457 43.0379 8.81166 43.0336 8.47203 43.0261C7.76846 43.0171 7.06654 42.9572 6.37202 42.8467C5.72442 42.7375 5.09706 42.5344 4.51065 42.244C3.92961 41.9561 3.39966 41.5785 2.9411 41.1258C2.4759 40.6784 2.08859 40.1595 1.79454 39.5896C1.49725 39.0161 1.2915 38.4013 1.18447 37.7667C1.06889 37.0848 1.00635 36.3953 0.997405 35.7042C0.990282 35.4722 0.980957 34.6998 0.980957 34.6998V9.28916C0.980957 9.28916 0.990889 8.52861 0.997462 8.30517C1.00603 7.61512 1.0682 6.92671 1.18344 6.24589C1.29066 5.60957 1.49657 4.99301 1.79402 4.41758C2.087 3.84813 2.47215 3.32884 2.93455 2.87984C3.39643 2.42657 3.92808 2.04706 4.5101 1.75512C5.09516 1.46569 5.72133 1.264 6.36763 1.15679C7.06443 1.04521 7.76879 0.984886 8.47479 0.976322L9.48856 0.962891H124.951L125.977 0.976861C126.676 0.985 127.374 1.04479 128.064 1.15571C128.717 1.26426 129.35 1.46737 129.942 1.75834C131.108 2.34668 132.056 3.27747 132.655 4.42027C132.948 4.99173 133.15 5.60325 133.256 6.23408C133.373 6.92048 133.438 7.6143 133.452 8.31001C133.455 8.62153 133.455 8.95615 133.455 9.28916C133.464 9.70166 133.464 10.0943 133.464 10.4901V33.5117C133.464 33.9113 133.464 34.3013 133.455 34.6944C133.455 35.0521 133.455 35.3798 133.45 35.7171C133.437 36.4004 133.373 37.0818 133.258 37.7559C133.154 38.3951 132.949 39.0147 132.652 39.5929C132.356 40.1566 131.971 40.671 131.511 41.1172C131.052 41.5723 130.521 41.9521 129.938 42.2419C129.348 42.5345 128.717 42.7384 128.064 42.8467C127.37 42.9578 126.668 43.0177 125.964 43.0261C125.635 43.0336 125.291 43.0379 124.956 43.0379L123.738 43.0401L9.48801 43.0379Z" fill="white"/>
<path d="M28.0842 21.8797C28.0967 20.925 28.3558 19.9888 28.8371 19.1584C29.3185 18.328 30.0066 17.6303 30.8374 17.1303C30.3097 16.3923 29.6134 15.7849 28.8039 15.3565C27.9945 14.928 27.0941 14.6903 26.1744 14.6621C24.2125 14.4605 22.3105 15.8115 21.3107 15.8115C20.2916 15.8115 18.7523 14.6821 17.0948 14.7155C16.0226 14.7494 14.9777 15.0547 14.0619 15.6015C13.146 16.1484 12.3905 16.9182 11.8689 17.8359C9.60935 21.6661 11.2947 27.2952 13.4592 30.3913C14.5421 31.9073 15.8078 33.6008 17.4638 33.5408C19.0844 33.4749 19.6897 32.529 21.6458 32.529C23.5838 32.529 24.1516 33.5408 25.8413 33.5026C27.5803 33.4749 28.6758 31.9798 29.7208 30.4494C30.4989 29.3691 31.0976 28.1752 31.4948 26.9119C30.4846 26.4936 29.6224 25.7933 29.0159 24.8984C28.4094 24.0036 28.0853 22.9537 28.0842 21.8797Z" fill="#0C0C0C"/>
<path d="M24.8927 12.6257C25.8408 11.5113 26.3079 10.079 26.1948 8.63281C24.7463 8.78177 23.4082 9.45959 22.4473 10.5312C21.9774 11.0547 21.6176 11.6638 21.3883 12.3235C21.159 12.9833 21.0648 13.6808 21.111 14.3763C21.8356 14.3836 22.5524 14.2298 23.2074 13.9266C23.8624 13.6234 24.4387 13.1786 24.8927 12.6257Z" fill="#0C0C0C"/>
<path d="M47.5269 29.8544H42.2088L40.9317 33.5465H38.6792L43.7164 19.8867H46.0566L51.0938 33.5465H48.8029L47.5269 29.8544ZM42.7596 28.1507H46.9751L44.897 22.1587H44.8388L42.7596 28.1507Z" fill="#0C0C0C"/>
<path d="M61.9724 28.5676C61.9724 31.6624 60.2805 33.6508 57.7274 33.6508C57.0806 33.6839 56.4374 33.538 55.8714 33.2299C55.3053 32.9217 54.8394 32.4637 54.5269 31.9084H54.4786V36.8412H52.3906V23.5875H54.4116V25.2439H54.45C54.7769 24.6912 55.2508 24.2356 55.8211 23.9256C56.3914 23.6155 57.0369 23.4627 57.6889 23.4833C60.2706 23.4833 61.9724 25.4813 61.9724 28.5676ZM59.8263 28.5676C59.8263 26.5513 58.762 25.2257 57.1382 25.2257C55.5429 25.2257 54.4698 26.5792 54.4698 28.5676C54.4698 30.5742 55.5429 31.9181 57.1382 31.9181C58.762 31.9181 59.8262 30.6021 59.8262 28.5676H59.8263Z" fill="#0C0C0C"/>
<path d="M73.1686 28.5676C73.1686 31.6624 71.4762 33.6508 68.923 33.6508C68.2763 33.6839 67.6331 33.538 67.067 33.2299C66.501 32.9217 66.0351 32.4637 65.7226 31.9084H65.6742V36.8412H63.5863V23.5875H65.6073V25.2439H65.6457C65.9726 24.6912 66.4464 24.2356 67.0168 23.9256C67.5871 23.6155 68.2326 23.4627 68.8846 23.4833C71.4663 23.4833 73.1686 25.4813 73.1686 28.5676ZM71.0219 28.5676C71.0219 26.5513 69.9577 25.2257 68.3338 25.2257C66.7385 25.2257 65.6655 26.5792 65.6655 28.5676C65.6655 30.5742 66.7385 31.9181 68.3338 31.9181C69.9577 31.9181 71.0219 30.6021 71.0219 28.5676Z" fill="#0C0C0C"/>
<path d="M80.5669 29.7408C80.7216 31.0954 82.0657 31.9848 83.9023 31.9848C85.6622 31.9848 86.9284 31.0953 86.9284 29.8739C86.9284 28.8137 86.1647 28.1788 84.3566 27.7438L82.5484 27.3173C79.9865 26.7114 78.7972 25.5384 78.7972 23.6349C78.7972 21.278 80.895 19.6592 83.8727 19.6592C86.8219 19.6592 88.843 21.278 88.911 23.6349H86.8033C86.6771 22.2717 85.5262 21.4488 83.8442 21.4488C82.1622 21.4488 81.0112 22.2814 81.0112 23.4931C81.0112 24.4588 81.7464 25.0271 83.5446 25.4621L85.0818 25.8316C87.9443 26.4944 89.1326 27.6202 89.1326 29.6182C89.1326 32.1738 87.0545 33.7744 83.7476 33.7744C80.6535 33.7744 78.5645 32.2114 78.4295 29.7407L80.5669 29.7408Z" fill="#0C0C0C"/>
<path d="M93.6409 21.2314V23.5883H95.5753V25.2071H93.6409V30.6975C93.6409 31.5504 94.0283 31.9479 94.8786 31.9479C95.1082 31.9439 95.3375 31.9281 95.5654 31.9006V33.5097C95.1831 33.5797 94.7945 33.6113 94.4057 33.6043C92.3463 33.6043 91.5431 32.8469 91.5431 30.9155V25.2071H90.0641V23.5883H91.5431V21.2314H93.6409Z" fill="#0C0C0C"/>
<path d="M96.6944 28.5684C96.6944 25.4349 98.5794 23.4658 101.519 23.4658C104.468 23.4658 106.344 25.4348 106.344 28.5684C106.344 31.7105 104.478 33.6709 101.519 33.6709C98.5607 33.6709 96.6944 31.7104 96.6944 28.5684ZM104.217 28.5684C104.217 26.4188 103.211 25.1502 101.519 25.1502C99.8269 25.1502 98.8207 26.4285 98.8207 28.5684C98.8207 30.7265 99.8269 31.9855 101.519 31.9855C103.211 31.9855 104.217 30.7265 104.217 28.5684H104.217Z" fill="#0C0C0C"/>
<path d="M108.066 23.5874H110.057V25.2825H110.105C110.24 24.7531 110.557 24.2852 111.002 23.9575C111.448 23.6299 111.995 23.4624 112.552 23.4832C112.793 23.4824 113.033 23.5079 113.267 23.5595V25.4716C112.964 25.3807 112.647 25.339 112.329 25.348C112.026 25.336 111.724 25.3883 111.443 25.5015C111.162 25.6147 110.91 25.786 110.703 26.0037C110.496 26.2214 110.34 26.4803 110.245 26.7626C110.151 27.0449 110.119 27.344 110.154 27.6393V33.5465H108.066L108.066 23.5874Z" fill="#0C0C0C"/>
<path d="M122.894 30.6223C122.613 32.4302 120.815 33.6709 118.514 33.6709C115.555 33.6709 113.718 31.7298 113.718 28.6156C113.718 25.4918 115.565 23.4658 118.426 23.4658C121.241 23.4658 123.01 25.3586 123.01 28.3782V29.0786H115.826V29.2021C115.793 29.5687 115.84 29.9379 115.963 30.2853C116.087 30.6327 116.285 30.9504 116.544 31.2172C116.803 31.484 117.117 31.6939 117.465 31.8328C117.813 31.9717 118.187 32.0366 118.562 32.023C119.056 32.0683 119.551 31.9564 119.974 31.704C120.397 31.4517 120.726 31.0722 120.911 30.6223L122.894 30.6223ZM115.836 27.6499H120.921C120.94 27.3203 120.889 26.9906 120.771 26.6812C120.654 26.3719 120.472 26.0897 120.238 25.8524C120.004 25.615 119.722 25.4276 119.41 25.302C119.098 25.1764 118.763 25.1152 118.426 25.1223C118.086 25.1203 117.749 25.1842 117.435 25.3105C117.12 25.4367 116.834 25.6226 116.593 25.8576C116.352 26.0926 116.161 26.372 116.031 26.6796C115.901 26.9872 115.835 27.317 115.836 27.6499V27.6499Z" fill="#0C0C0C"/>
<path d="M42.4981 9.60413C42.9359 9.57337 43.3751 9.63812 43.7842 9.79369C44.1933 9.94927 44.562 10.1918 44.8638 10.5038C45.1655 10.8158 45.3928 11.1894 45.5292 11.5978C45.6656 12.0062 45.7077 12.4392 45.6525 12.8655C45.6525 14.9623 44.495 16.1677 42.4981 16.1677H40.0767V9.60413H42.4981ZM41.1179 15.2394H42.3818C42.6946 15.2577 43.0077 15.2075 43.2981 15.0924C43.5886 14.9774 43.8492 14.8003 44.061 14.5742C44.2728 14.3481 44.4304 14.0786 44.5223 13.7853C44.6143 13.492 44.6383 13.1823 44.5927 12.8788C44.635 12.5765 44.6086 12.2688 44.5152 11.9776C44.4218 11.6865 44.2638 11.4192 44.0525 11.1949C43.8412 10.9706 43.5819 10.7948 43.293 10.6801C43.0042 10.5654 42.693 10.5148 42.3818 10.5317H41.1179V15.2394Z" fill="#0C0C0C"/>
<path d="M46.8287 13.6901C46.7969 13.3646 46.8349 13.0362 46.9404 12.7259C47.0458 12.4156 47.2163 12.1304 47.4409 11.8884C47.6656 11.6464 47.9394 11.4531 48.2448 11.3208C48.5502 11.1885 48.8805 11.1201 49.2145 11.1201C49.5485 11.1201 49.8788 11.1885 50.1842 11.3208C50.4897 11.4531 50.7635 11.6464 50.9881 11.8884C51.2128 12.1304 51.3833 12.4156 51.4887 12.7259C51.5941 13.0362 51.6322 13.3646 51.6003 13.6901C51.6328 14.016 51.5952 14.3449 51.49 14.6556C51.3849 14.9664 51.2145 15.2522 50.9898 15.4947C50.7651 15.7371 50.4911 15.9309 50.1853 16.0635C49.8796 16.196 49.5489 16.2645 49.2145 16.2645C48.8801 16.2645 48.5495 16.196 48.2437 16.0635C47.938 15.9309 47.664 15.7371 47.4393 15.4947C47.2146 15.2522 47.0442 14.9664 46.939 14.6556C46.8339 14.3449 46.7963 14.016 46.8287 13.6901ZM50.5734 13.6901C50.5734 12.6165 50.0807 11.9886 49.2162 11.9886C48.3483 11.9886 47.8601 12.6165 47.8601 13.6901C47.8601 14.7724 48.3483 15.3955 49.2162 15.3955C50.0808 15.3955 50.5734 14.7681 50.5734 13.6901H50.5734Z" fill="#0C0C0C"/>
<path d="M57.9432 16.1681H56.9075L55.8618 12.52H55.7829L54.7416 16.1681H53.7157L52.3212 11.2148H53.3339L54.2402 14.9944H54.3148L55.355 11.2148H56.3128L57.3529 14.9944H57.4319L58.3338 11.2148H59.3322L57.9432 16.1681Z" fill="#0C0C0C"/>
<path d="M60.5049 11.2147H61.466V12.0016H61.5406C61.6672 11.719 61.8807 11.4821 62.1513 11.3239C62.4219 11.1657 62.7362 11.0941 63.0504 11.1191C63.2965 11.101 63.5437 11.1374 63.7736 11.2255C64.0034 11.3136 64.2101 11.4512 64.3783 11.6281C64.5464 11.805 64.6718 12.0167 64.7451 12.2475C64.8183 12.4783 64.8376 12.7223 64.8015 12.9614V16.1679H63.803V13.2069C63.803 12.4109 63.4497 12.015 62.7113 12.015C62.5442 12.0074 62.3774 12.0353 62.2222 12.0967C62.0671 12.1581 61.9274 12.2516 61.8127 12.3708C61.6979 12.4901 61.6109 12.6322 61.5575 12.7874C61.5041 12.9427 61.4856 13.1074 61.5033 13.2703V16.168H60.5049L60.5049 11.2147Z" fill="#0C0C0C"/>
<path d="M66.3926 9.28125H67.3911V16.1681H66.3926V9.28125Z" fill="#0C0C0C"/>
<path d="M68.779 13.6883C68.7472 13.3627 68.7853 13.0343 68.8907 12.724C68.9962 12.4137 69.1667 12.1284 69.3914 11.8864C69.616 11.6445 69.8899 11.4511 70.1953 11.3188C70.5008 11.1865 70.8311 11.1182 71.1651 11.1182C71.4991 11.1182 71.8294 11.1865 72.1349 11.3188C72.4403 11.4511 72.7141 11.6445 72.9388 11.8864C73.1635 12.1284 73.334 12.4137 73.4394 12.724C73.5449 13.0343 73.583 13.3627 73.5512 13.6883C73.5835 14.0141 73.5459 14.343 73.4408 14.6538C73.3356 14.9646 73.1651 15.2504 72.9404 15.4928C72.7157 15.7353 72.4417 15.929 72.1359 16.0616C71.8302 16.1942 71.4995 16.2627 71.1651 16.2627C70.8307 16.2627 70.5 16.1942 70.1942 16.0616C69.8885 15.929 69.6145 15.7353 69.3898 15.4928C69.165 15.2504 68.9946 14.9646 68.8894 14.6538C68.7842 14.343 68.7466 14.0141 68.779 13.6883ZM72.5237 13.6883C72.5237 12.6146 72.031 11.9867 71.1665 11.9867C70.2986 11.9867 69.8104 12.6146 69.8104 13.6883C69.8104 14.7706 70.2986 15.3936 71.1665 15.3936C72.031 15.3936 72.5237 14.7663 72.5237 13.6883H72.5237Z" fill="#0C0C0C"/>
<path d="M74.6023 14.7682C74.6023 13.8766 75.2803 13.3625 76.4839 13.2895L77.8543 13.2122V12.7846C77.8543 12.2615 77.501 11.9661 76.8186 11.9661C76.2612 11.9661 75.875 12.1664 75.7642 12.5166H74.7976C74.8996 11.6658 75.717 11.1201 76.8647 11.1201C78.133 11.1201 78.8484 11.7383 78.8484 12.7846V16.1689H77.8872V15.4729H77.8082C77.6479 15.7225 77.4227 15.9261 77.1558 16.0627C76.8888 16.1994 76.5896 16.2642 76.2886 16.2506C76.0763 16.2722 75.8616 16.25 75.6585 16.1854C75.4554 16.1209 75.2684 16.0153 75.1095 15.8757C74.9506 15.736 74.8234 15.5653 74.736 15.3745C74.6487 15.1838 74.6031 14.9772 74.6023 14.7682ZM77.8543 14.3449V13.9308L76.6189 14.0081C75.9222 14.0538 75.6062 14.2858 75.6062 14.7225C75.6062 15.1683 76.0012 15.4277 76.5443 15.4277C76.7035 15.4435 76.8642 15.4278 77.017 15.3815C77.1698 15.3352 77.3115 15.2592 77.4338 15.1582C77.556 15.0572 77.6562 14.9331 77.7285 14.7934C77.8007 14.6537 77.8435 14.5012 77.8543 14.3449Z" fill="#0C0C0C"/>
<path d="M80.1606 13.6893C80.1606 12.1242 80.9824 11.1327 82.2606 11.1327C82.5768 11.1184 82.8906 11.1926 83.1653 11.3464C83.44 11.5003 83.6644 11.7276 83.812 12.0017H83.8867V9.28125H84.8851V16.1681H83.9284V15.3855H83.8494C83.6903 15.6577 83.4581 15.8822 83.1781 16.0345C82.898 16.1868 82.5808 16.2612 82.2606 16.2497C80.9736 16.2497 80.1606 15.2582 80.1606 13.6893ZM81.192 13.6893C81.192 14.7399 81.6978 15.3721 82.5437 15.3721C83.3853 15.3721 83.9053 14.7308 83.9053 13.6936C83.9053 12.6613 83.3798 12.0109 82.5437 12.0109C81.7033 12.0109 81.192 12.6473 81.192 13.6893H81.192Z" fill="#0C0C0C"/>
<path d="M89.0159 13.6901C88.9841 13.3646 89.0222 13.0362 89.1276 12.7259C89.233 12.4156 89.4035 12.1304 89.6282 11.8884C89.8528 11.6464 90.1266 11.4531 90.432 11.3208C90.7375 11.1885 91.0678 11.1201 91.4018 11.1201C91.7358 11.1201 92.0661 11.1885 92.3715 11.3208C92.6769 11.4531 92.9507 11.6464 93.1754 11.8884C93.4 12.1304 93.5705 12.4156 93.6759 12.7259C93.7814 13.0362 93.8194 13.3646 93.7876 13.6901C93.82 14.016 93.7824 14.3449 93.6773 14.6556C93.5721 14.9664 93.4017 15.2522 93.177 15.4947C92.9523 15.7371 92.6783 15.9309 92.3726 16.0635C92.0668 16.196 91.7362 16.2645 91.4018 16.2645C91.0674 16.2645 90.7367 16.196 90.431 16.0635C90.1252 15.9309 89.8512 15.7371 89.6265 15.4947C89.4018 15.2522 89.2314 14.9664 89.1263 14.6556C89.0211 14.3449 88.9835 14.016 89.0159 13.6901ZM92.7606 13.6901C92.7606 12.6165 92.268 11.9886 91.4034 11.9886C90.5355 11.9886 90.0473 12.6165 90.0473 13.6901C90.0473 14.7724 90.5356 15.3955 91.4034 15.3955C92.268 15.3955 92.7606 14.7681 92.7606 13.6901Z" fill="#0C0C0C"/>
<path d="M95.1274 11.2147H96.0886V12.0016H96.1632C96.2898 11.719 96.5032 11.4821 96.7739 11.3239C97.0445 11.1657 97.3588 11.0941 97.6729 11.1191C97.9191 11.101 98.1663 11.1374 98.3961 11.2255C98.626 11.3136 98.8327 11.4512 99.0008 11.6281C99.169 11.805 99.2944 12.0167 99.3676 12.2475C99.4409 12.4783 99.4602 12.7223 99.424 12.9614V16.1679H98.4256V13.2069C98.4256 12.4109 98.0723 12.015 97.3339 12.015C97.1668 12.0074 96.9999 12.0353 96.8448 12.0967C96.6897 12.1581 96.55 12.2516 96.4352 12.3708C96.3205 12.4901 96.2335 12.6322 96.1801 12.7874C96.1267 12.9427 96.1082 13.1074 96.1259 13.2703V16.168H95.1274V11.2147Z" fill="#0C0C0C"/>
<path d="M105.066 9.98145V11.2372H106.162V12.0606H105.066V14.6076C105.066 15.1264 105.284 15.3536 105.781 15.3536C105.908 15.3532 106.035 15.3457 106.162 15.3311V16.1453C105.982 16.1767 105.801 16.1934 105.619 16.1953C104.508 16.1953 104.066 15.8128 104.066 14.8579V12.0606H103.263V11.2372H104.066V9.98145H105.066Z" fill="#0C0C0C"/>
<path d="M107.525 9.28125H108.515V12.0108H108.594C108.727 11.7256 108.946 11.4873 109.222 11.3286C109.498 11.1698 109.818 11.0982 110.137 11.1235C110.382 11.1105 110.626 11.1505 110.854 11.2408C111.081 11.331 111.285 11.4693 111.451 11.6456C111.618 11.822 111.742 12.0322 111.816 12.2611C111.89 12.4901 111.912 12.7321 111.879 12.9701V16.1681H110.88V13.2113C110.88 12.4201 110.503 12.0194 109.798 12.0194C109.626 12.0056 109.454 12.0287 109.292 12.0871C109.13 12.1455 108.984 12.2377 108.863 12.3573C108.741 12.4769 108.648 12.621 108.59 12.7796C108.531 12.9381 108.509 13.1073 108.524 13.2752V16.1681H107.525L107.525 9.28125Z" fill="#0C0C0C"/>
<path d="M117.701 14.8297C117.565 15.2824 117.271 15.6739 116.87 15.9359C116.47 16.1979 115.988 16.3135 115.509 16.2627C115.175 16.2713 114.844 16.2088 114.538 16.0795C114.232 15.9502 113.958 15.7573 113.736 15.514C113.513 15.2708 113.348 14.983 113.25 14.6708C113.153 14.3586 113.126 14.0294 113.172 13.706C113.127 13.3817 113.154 13.0517 113.252 12.7386C113.349 12.4255 113.514 12.1364 113.735 11.891C113.956 11.6457 114.228 11.4497 114.534 11.3163C114.839 11.183 115.17 11.1155 115.504 11.1182C116.912 11.1182 117.761 12.0598 117.761 13.6152V13.9563H114.189V14.0111C114.173 14.1929 114.196 14.3759 114.257 14.5483C114.318 14.7207 114.415 14.8788 114.542 15.0124C114.669 15.146 114.823 15.2522 114.994 15.3241C115.165 15.396 115.35 15.4322 115.536 15.4301C115.775 15.4582 116.017 15.4161 116.231 15.3092C116.445 15.2022 116.622 15.0353 116.74 14.8296L117.701 14.8297ZM114.189 13.2334H116.744C116.757 13.0671 116.733 12.9002 116.676 12.7432C116.619 12.5862 116.529 12.4427 116.412 12.3218C116.294 12.201 116.152 12.1055 115.995 12.0415C115.838 11.9775 115.669 11.9464 115.499 11.9502C115.326 11.9481 115.155 11.9799 114.995 12.0436C114.835 12.1073 114.689 12.2018 114.567 12.3214C114.445 12.4409 114.349 12.5832 114.284 12.7399C114.219 12.8965 114.186 13.0643 114.189 13.2334H114.189Z" fill="#0C0C0C"/>
</svg>
