<svg width="152" height="44" viewBox="0 0 152 44" fill="none" xmlns="http://www.w3.org/2000/svg">
<g clip-path="url(#clip0_63_2676)">
<path d="M146.175 43.8906H6.15707C3.07668 43.8906 0.556351 41.4279 0.556351 38.418V5.58217C0.556351 2.57222 3.07668 0.109531 6.15707 0.109531H146.175C149.256 0.109531 151.776 2.57222 151.776 5.58217V38.418C151.776 41.4279 149.256 43.8906 146.175 43.8906Z" fill="white"/>
<path d="M53.6718 11.3215C53.6718 12.2385 53.3939 12.9688 52.8373 13.5135C52.2051 14.1613 51.3811 14.4854 50.3682 14.4854C49.3981 14.4854 48.5733 14.157 47.8951 13.4994C47.2156 12.8422 46.8766 12.0274 46.8766 11.0551C46.8766 10.0824 47.2156 9.26796 47.8951 8.61037C48.5733 7.95321 49.3981 7.62442 50.3682 7.62442C50.8495 7.62442 51.3103 7.71635 51.7478 7.8998C52.1854 8.08368 52.5363 8.32776 52.7989 8.63346L52.2081 9.21104C51.7632 8.69158 51.1506 8.43207 50.3682 8.43207C49.6607 8.43207 49.049 8.67494 48.5327 9.16102C48.0163 9.64765 47.7582 10.2786 47.7582 11.0551C47.7582 11.8316 48.0163 12.4626 48.5327 12.9492C49.049 13.4353 49.6607 13.6781 50.3682 13.6781C51.1186 13.6781 51.7444 13.4339 52.2453 12.9449C52.5705 12.6263 52.7585 12.1835 52.8088 11.6147H50.3682V10.8259H53.625C53.6564 10.9974 53.6718 11.162 53.6718 11.3215Z" fill="#0C0C0C"/>
<path d="M53.6718 11.3214H53.5598C53.5589 12.2175 53.2911 12.9135 52.7581 13.4361L52.7569 13.4369L52.7564 13.4378C52.1443 14.0632 51.3575 14.3745 50.3682 14.3758C49.424 14.3745 48.6337 14.0598 47.9739 13.4219C47.3154 12.7827 46.9898 12.0024 46.9886 11.055C46.9898 10.1072 47.3154 9.32731 47.9739 8.68855C48.6337 8.05022 49.424 7.7351 50.3682 7.73379C50.8351 7.73379 51.2796 7.82278 51.7036 8.0002C52.128 8.17893 52.4633 8.41316 52.7131 8.70398L52.7989 8.63338L52.7197 8.556L52.1289 9.13402L52.2081 9.21097L52.2944 9.14091C51.8287 8.59573 51.1751 8.3209 50.3682 8.32254C49.6345 8.32166 48.9891 8.57778 48.4552 9.08236C47.9162 9.58858 47.6453 10.255 47.6462 11.055C47.6453 11.855 47.9162 12.5215 48.4552 13.0277C48.9891 13.5323 49.6345 13.7884 50.3682 13.7875C51.1435 13.7888 51.8043 13.5318 52.3245 13.0222C52.672 12.6818 52.8689 12.2103 52.9205 11.6241L52.931 11.5052H50.4802V10.9353H53.625V10.8258L53.5147 10.8451C53.5454 11.011 53.5598 11.1687 53.5598 11.3214H53.6718H53.7838C53.7838 11.1551 53.768 10.9841 53.7352 10.8062L53.7186 10.7164H50.2562V11.6147V11.7241H52.8089V11.6147L52.6973 11.6052C52.6479 12.156 52.4684 12.5707 52.1661 12.8675C51.6848 13.336 51.0941 13.5673 50.3682 13.5686C49.6869 13.5677 49.1089 13.3385 48.6106 12.8704C48.117 12.4039 47.8715 11.8084 47.8703 11.055C47.8715 10.3017 48.117 9.70613 48.6106 9.23964C49.1089 8.77151 49.6869 8.54232 50.3682 8.54144C51.1256 8.54319 51.6976 8.78771 52.1224 9.28156L52.2012 9.37306L52.8781 8.71077L52.9507 8.63984L52.8846 8.56322C52.6094 8.24264 52.2427 7.98816 51.792 7.79924C51.3405 7.60978 50.864 7.51489 50.3682 7.51489C49.3724 7.51401 48.513 7.85605 47.8159 8.53291C47.1163 9.20845 46.7637 10.0576 46.7646 11.055C46.7637 12.052 47.1163 12.9016 47.8164 13.5776C48.513 14.254 49.3724 14.5956 50.3682 14.5947C51.4052 14.5956 52.2655 14.259 52.9183 13.5891L52.8373 13.5134L52.9165 13.5908C53.4967 13.0243 53.7846 12.259 53.7838 11.3214H53.6718Z" fill="#0C0C0C"/>
<path d="M58.8349 8.57848H55.7742V10.6607H58.5344V11.4499H55.7742V13.5321H58.8349V14.3389H54.9114V7.7717H58.8349V8.57848Z" fill="#0C0C0C"/>
<path d="M58.8349 8.5784V8.46895H55.6622V10.7701H58.4223V11.34L55.6622 11.3403V13.6415H58.7229V14.2293H55.0234V7.88108H58.7229V8.5784H58.8349V8.46895V8.5784H58.9469V7.77163V7.66217H54.7993V14.4482H58.9469V13.532V13.4226H55.8862V11.5592H58.6464V10.6606V10.5512H55.8862V8.68785H58.9469V8.5784H58.8349Z" fill="#0C0C0C"/>
<path d="M62.4767 14.3389H61.6125V8.57848H59.7354V7.7717H64.3538V8.57848H62.4767V14.3389Z" fill="#0C0C0C"/>
<path d="M62.4767 14.3388V14.2293H61.7245V8.46895H59.8474V7.88108H64.2418V8.46895H62.3647V14.3388H62.4767V14.2293V14.3388H62.5887V8.68785H64.4658V7.77163V7.66217H59.6234V8.5784V8.68785H61.5005V14.4482H62.4767H62.5887V14.3388H62.4767Z" fill="#0C0C0C"/>
<path d="M67.6955 14.3389V7.7717H68.5588V14.3389H67.6955Z" fill="#0C0C0C"/>
<path d="M67.6954 14.3388H67.8075V7.88108H68.4467V14.2293H67.6954V14.3388H67.8075H67.6954V14.4482H68.5587H68.6707V7.66217H67.6954H67.5834V14.4482H67.6954V14.3388Z" fill="#0C0C0C"/>
<path d="M72.3895 14.3389H71.5254V8.57848H69.6483V7.7717H74.2667V8.57848H72.3895V14.3389Z" fill="#0C0C0C"/>
<path d="M72.3895 14.3388V14.2293H71.6373V8.46895H69.7603V7.88108H74.1546V8.46895H72.2775V14.3388H72.3895V14.2293V14.3388H72.5015V8.68785H74.3787V7.77163V7.66217H69.5363V8.5784V8.68785H71.4133V14.4482H72.3895H72.5015V14.3388H72.3895Z" fill="#0C0C0C"/>
<path d="M78.7193 12.9402C79.2167 13.4323 79.8254 13.6781 80.5452 13.6781C81.265 13.6781 81.874 13.4323 82.3707 12.9402C82.8686 12.4481 83.118 11.8191 83.118 11.0551C83.118 10.2911 82.8686 9.6621 82.3707 9.17C81.874 8.6779 81.265 8.43207 80.5452 8.43207C79.8254 8.43207 79.2167 8.6779 78.7193 9.17C78.2226 9.6621 77.9732 10.2911 77.9732 11.0551C77.9732 11.8191 78.2226 12.4481 78.7193 12.9402ZM83.0095 13.49C82.3487 14.1539 81.527 14.4854 80.5452 14.4854C79.5624 14.4854 78.7411 14.1539 78.0818 13.49C77.4206 12.8268 77.0916 12.015 77.0916 11.0551C77.0916 10.0952 77.4206 9.28328 78.0818 8.62022C78.7411 7.95617 79.5624 7.62442 80.5452 7.62442C81.5218 7.62442 82.3413 7.95792 83.0051 8.62449C83.668 9.29105 83.9997 10.1012 83.9997 11.0551C83.9997 12.015 83.6688 12.8268 83.0095 13.49Z" fill="#0C0C0C"/>
<path d="M78.7193 12.9401L78.6396 13.0171C79.1555 13.5289 79.7992 13.7888 80.5452 13.7875C81.2908 13.7888 81.9353 13.5289 82.4503 13.0171C82.9696 12.5048 83.2309 11.8421 83.2301 11.055C83.2309 10.2679 82.9696 9.60521 82.4503 9.09297C81.9353 8.58117 81.2908 8.32122 80.5452 8.32254C79.7992 8.32122 79.1555 8.58117 78.6396 9.09297C78.1215 9.60521 77.8599 10.2679 77.8612 11.055C77.8599 11.8421 78.1215 12.5048 78.6396 13.0171L78.7193 12.9401L78.7989 12.8632C78.3237 12.3907 78.0861 11.7963 78.0852 11.055C78.0861 10.3137 78.3237 9.71937 78.7989 9.24687C79.2784 8.77447 79.8512 8.54276 80.5452 8.54144C81.2387 8.54276 81.8128 8.77447 82.2911 9.24687C82.7671 9.71937 83.0047 10.3137 83.0056 11.055C83.0047 11.7963 82.7671 12.3907 82.2911 12.8632C81.8128 13.3356 81.2387 13.5673 80.5452 13.5686C79.8512 13.5673 79.2784 13.3356 78.7989 12.8632L78.7193 12.9401ZM83.0095 13.4899L82.9294 13.4138C82.2871 14.0569 81.5017 14.3745 80.5452 14.3758C79.5883 14.3745 78.8028 14.0569 78.1618 13.4138L78.1587 13.4104L78.1618 13.4138C77.5208 12.7686 77.2045 11.9905 77.2036 11.055C77.2045 10.1195 77.5208 9.34143 78.1618 8.69621C78.8028 8.05317 79.5883 7.7351 80.5452 7.73379C81.4955 7.7351 82.2792 8.05449 82.9251 8.70091C83.5683 9.34909 83.8864 10.126 83.8877 11.055C83.8864 11.9905 83.5691 12.7686 82.9294 13.4138L83.0095 13.4899L83.0901 13.566C83.7691 12.8845 84.1125 12.0392 84.1117 11.055C84.1125 10.0764 83.7677 9.23285 83.0856 8.54834C82.4031 7.86119 81.5481 7.51368 80.5452 7.51488C79.5371 7.51368 78.6795 7.85955 78.0012 8.54407V8.54363C77.3209 9.22552 76.9787 10.0708 76.9796 11.055C76.9787 12.0392 77.3209 12.8845 78.0012 13.5664L78.0043 13.5695L78.0012 13.566C78.6795 14.2505 79.5371 14.5956 80.5452 14.5947C81.5529 14.5956 82.4105 14.2505 83.0901 13.566L83.0095 13.4899Z" fill="#0C0C0C"/>
<path d="M85.2117 14.3389V7.7717H86.2627L89.5291 12.8805H89.5663L89.5291 11.6149V7.7717H90.3933V14.3389H89.4919L86.0745 8.98247H86.0374L86.0745 10.2485V14.3389H85.2117Z" fill="#0C0C0C"/>
<path d="M85.2117 14.3388H85.3237V7.88108H86.2006L89.4669 12.9899H89.5663H89.6813L89.6411 11.6132V7.88108H90.2813V14.2293H89.5541L86.1367 8.87294H86.0374H85.9223L85.9625 10.2502V14.2293H85.2117V14.3388H85.3237H85.2117V14.4482H86.0745H86.1866V10.2467L86.1494 8.97944L86.0374 8.98239V9.09185H86.0745V8.98239L85.9796 9.04062L89.4297 14.4482H90.3933H90.5053V7.66217H89.5291H89.4171V11.6162L89.4542 12.8834L89.5663 12.8804V12.771H89.5291V12.8804L89.6241 12.8223L86.3248 7.66217H85.2117H85.0997V14.4482H85.2117V14.3388Z" fill="#0C0C0C"/>
<path d="M120.34 32.9457H122.43V19.2628H120.34V32.9457ZM139.166 24.1917L136.77 30.1239H136.699L134.212 24.1917H131.961L135.689 32.4831L133.563 37.0951H135.744L141.491 24.1917H139.166ZM127.313 31.3916C126.627 31.3916 125.673 31.0572 125.673 30.2295C125.673 29.1734 126.863 28.7686 127.889 28.7686C128.808 28.7686 129.24 28.9622 129.799 29.2265C129.636 30.4938 128.519 31.3916 127.313 31.3916ZM127.565 23.8923C126.052 23.8923 124.485 24.5439 123.836 25.9874L125.691 26.7441C126.088 25.9874 126.826 25.7407 127.601 25.7407C128.682 25.7407 129.781 26.3747 129.799 27.5013V27.642C129.42 27.4307 128.61 27.114 127.619 27.114C125.619 27.114 123.583 28.1875 123.583 30.1944C123.583 32.0252 125.223 33.2048 127.06 33.2048C128.466 33.2048 129.24 32.5887 129.727 31.8671H129.799V32.9231H131.816V27.677C131.816 25.2481 129.961 23.8923 127.565 23.8923ZM114.648 25.8573H111.675V21.1672H114.648C116.21 21.1672 117.097 22.4314 117.097 23.5122C117.097 24.5726 116.21 25.8573 114.648 25.8573ZM114.594 19.2628H109.586V32.9457H111.675V27.7617H114.594C116.91 27.7617 119.187 26.1229 119.187 23.5122C119.187 20.9016 116.91 19.2628 114.594 19.2628ZM87.2835 31.3941C85.8396 31.3941 84.6306 30.2128 84.6306 28.5903C84.6306 26.9507 85.8396 25.7514 87.2835 25.7514C88.7091 25.7514 89.8279 26.9507 89.8279 28.5903C89.8279 30.2128 88.7091 31.3941 87.2835 31.3941ZM89.6836 24.9579H89.6113C89.1423 24.4114 88.2396 23.9176 87.1029 23.9176C84.7208 23.9176 82.5374 25.963 82.5374 28.5903C82.5374 31.2001 84.7208 33.2279 87.1029 33.2279C88.2396 33.2279 89.1423 32.734 89.6113 32.1701H89.6836V32.8401C89.6836 34.6213 88.7091 35.5735 87.1391 35.5735C85.8579 35.5735 85.0639 34.6739 84.7387 33.9158L82.9163 34.6564C83.4396 35.8907 84.8293 37.4072 87.1391 37.4072C89.5934 37.4072 91.6687 35.9963 91.6687 32.5579V24.1998H89.6836V24.9579ZM93.1122 32.9457H95.2055V19.2624H93.1122V32.9457ZM98.2915 28.4317C98.2373 26.6329 99.7171 25.7163 100.782 25.7163C101.612 25.7163 102.316 26.1216 102.55 26.704L98.2915 28.4317ZM104.788 26.8801C104.392 25.8394 103.182 23.9176 100.709 23.9176C98.2552 23.9176 96.2162 25.8044 96.2162 28.5728C96.2162 31.1825 98.2373 33.2279 100.944 33.2279C103.128 33.2279 104.392 31.923 104.915 31.1649L103.29 30.1067C102.749 30.8828 102.009 31.3941 100.944 31.3941C99.8794 31.3941 99.1217 30.9179 98.6342 29.9836L105.004 27.4089L104.788 26.8801ZM54.0363 25.346V27.3208H58.8725C58.7281 28.4317 58.3492 29.2427 57.7716 29.807C57.0681 30.495 55.9672 31.253 54.0363 31.253C51.0586 31.253 48.7308 28.9079 48.7308 25.9984C48.7308 23.089 51.0586 20.7435 54.0363 20.7435C55.6425 20.7435 56.8151 21.3608 57.6815 22.1543L59.1071 20.7614C57.8981 19.6327 56.2918 18.7686 54.0363 18.7686C49.9577 18.7686 46.5291 22.0132 46.5291 25.9984C46.5291 29.9836 49.9577 33.2279 54.0363 33.2279C56.238 33.2279 57.8981 32.5229 59.1973 31.2001C60.5327 29.8952 60.9479 28.0614 60.9479 26.5804C60.9479 26.1216 60.912 25.6987 60.8394 25.346H54.0363ZM66.4463 31.3941C65.0023 31.3941 63.757 30.2303 63.757 28.5728C63.757 26.8976 65.0023 25.7514 66.4463 25.7514C67.8897 25.7514 69.1349 26.8976 69.1349 28.5728C69.1349 30.2303 67.8897 31.3941 66.4463 31.3941ZM66.4463 23.9176C63.8112 23.9176 61.6637 25.8749 61.6637 28.5728C61.6637 31.253 63.8112 33.2279 66.4463 33.2279C69.0807 33.2279 71.2283 31.253 71.2283 28.5728C71.2283 25.8749 69.0807 23.9176 66.4463 23.9176ZM76.8784 31.3941C75.435 31.3941 74.1896 30.2303 74.1896 28.5728C74.1896 26.8976 75.435 25.7514 76.8784 25.7514C78.3219 25.7514 79.5672 26.8976 79.5672 28.5728C79.5672 30.2303 78.3219 31.3941 76.8784 31.3941ZM76.8784 23.9176C74.2435 23.9176 72.0964 25.8749 72.0964 28.5728C72.0964 31.253 74.2435 33.2279 76.8784 33.2279C79.513 33.2279 81.6605 31.253 81.6605 28.5728C81.6605 25.8749 79.513 23.9176 76.8784 23.9176Z" fill="#0C0C0C"/>
<path d="M12.3288 35.5605L12.2456 35.4827C11.9197 35.1457 11.7272 34.6224 11.7272 33.9448V34.1043V9.89771C11.7272 9.89552 11.7272 9.89388 11.7272 9.89213C11.7272 9.89421 11.7272 9.89596 11.7272 9.89815V10.0581C11.7272 9.32429 11.9516 8.77155 12.3275 8.44013L26.2059 22.0008L12.3288 35.5605ZM11.7272 9.89082C11.7272 9.83051 11.7289 9.77195 11.732 9.71427C11.7289 9.77151 11.7272 9.83051 11.7272 9.89082ZM11.732 9.71165C11.732 9.71088 11.732 9.71 11.7324 9.70913C11.732 9.71 11.732 9.71088 11.732 9.71165ZM11.7324 9.70398C11.7324 9.70354 11.7324 9.70311 11.7324 9.70267C11.7324 9.70311 11.7324 9.70354 11.7324 9.70398Z" fill="url(#paint0_linear_63_2676)"/>
<path d="M30.8313 26.6826L30.9368 26.6241L36.4176 23.5812C36.9401 23.2909 37.2884 22.939 37.4621 22.5666C37.2888 22.939 36.9404 23.2913 36.4176 23.5816L30.9368 26.6245L30.8313 26.6826ZM30.8326 26.5223L26.2059 22.0006L30.8322 17.4796L36.4176 20.5802C37.1268 20.974 37.525 21.4815 37.5916 22.0001C37.5916 22.0006 37.5916 22.0014 37.5916 22.0022C37.525 22.5196 37.1268 23.0276 36.4176 23.4213L30.8326 26.5223Z" fill="url(#paint1_linear_63_2676)"/>
<path d="M13.3182 36.0771C12.9305 36.0771 12.5922 35.954 12.3284 35.7214L12.3288 35.721C12.5926 35.9536 12.9314 36.0771 13.319 36.0771C13.3527 36.0771 13.3868 36.0763 13.4214 36.0746C13.3864 36.0763 13.3518 36.0771 13.3182 36.0771ZM13.3186 35.9168C12.9309 35.9172 12.5926 35.7937 12.3288 35.5611V35.5608L26.2059 22.001L30.8326 26.5227L14.5735 35.5496C14.1236 35.7988 13.6974 35.9168 13.3186 35.9168ZM12.3249 35.7185C12.3004 35.6967 12.2763 35.6736 12.2527 35.6496L12.3249 35.7185Z" fill="url(#paint2_linear_63_2676)"/>
<path d="M26.2059 22.001L12.3275 8.44033C12.5913 8.20818 12.9291 8.08505 13.3164 8.08505C13.6962 8.08505 14.1228 8.20348 14.5735 8.45314L30.8322 17.48L26.2059 22.001ZM30.9368 17.3779L14.5735 8.29334C14.1228 8.04356 13.6962 7.92514 13.3164 7.92514C13.3146 7.92514 13.3133 7.92514 13.3115 7.92514C13.3138 7.92514 13.3155 7.92514 13.3182 7.92514C13.6971 7.92514 14.1232 8.04313 14.5735 8.2929L30.9368 17.3779Z" fill="url(#paint3_linear_63_2676)"/>
<path d="M13.4214 36.0742C13.7736 36.0545 14.1635 35.9361 14.5735 35.7091L30.8313 26.6826L14.5735 35.7091C14.1639 35.9365 13.7736 36.0545 13.4214 36.0742ZM12.3284 35.721L12.3249 35.7181C12.3262 35.7189 12.3275 35.7201 12.3284 35.721ZM12.2527 35.6492L12.2456 35.6424V35.642C12.2483 35.6445 12.2504 35.647 12.2527 35.6492Z" fill="white"/>
<path d="M30.8313 26.6826L30.9368 26.6241L30.8313 26.6826Z" fill="url(#paint4_linear_63_2676)"/>
<path d="M13.3191 36.0771C12.9314 36.0771 12.5926 35.9536 12.3288 35.721L12.3284 35.7214C12.3275 35.7206 12.3262 35.7193 12.3249 35.7185L12.2527 35.6496C12.2504 35.6474 12.2483 35.6449 12.2456 35.6424L12.3288 35.5611C12.5926 35.7937 12.9309 35.9172 13.3186 35.9168C13.6974 35.9168 14.1237 35.7988 14.5735 35.5496L30.8326 26.5227L30.9368 26.6245L30.8313 26.683L14.5735 35.7095C14.1635 35.9365 13.7736 36.0549 13.4214 36.0746C13.3868 36.0763 13.3527 36.0771 13.3191 36.0771Z" fill="url(#paint5_linear_63_2676)"/>
<path d="M12.2456 35.6426C11.9197 35.3056 11.7272 34.7823 11.7272 34.1047V34.1042C11.7272 34.7823 11.9197 35.3051 12.2456 35.6421V35.6426Z" fill="white"/>
<path d="M12.2456 35.6426C11.9197 35.3056 11.7272 34.7827 11.7272 34.1047V33.9452C11.7272 34.6228 11.9197 35.1461 12.2456 35.4831L12.3288 35.5609L12.2456 35.6426Z" fill="url(#paint6_linear_63_2676)"/>
<path d="M12.2456 35.6426L12.3288 35.5609V35.5613L12.2456 35.6426Z" fill="url(#paint7_linear_63_2676)"/>
<path d="M37.4621 22.5674C37.5482 22.3826 37.5916 22.1928 37.5916 22.0029C37.5916 22.0026 37.5916 22.0022 37.5916 22.0022C37.5916 22.1924 37.5482 22.3822 37.4621 22.5674Z" fill="white"/>
<path d="M30.9368 26.624L30.8326 26.5222L36.4175 23.4212C37.1268 23.0275 37.525 22.5195 37.5916 22.0022C37.5916 22.1921 37.5482 22.3818 37.4621 22.5666C37.2883 22.939 36.9401 23.2909 36.4175 23.5811L30.9368 26.624Z" fill="url(#paint8_linear_63_2676)"/>
<path d="M37.5916 22.001V22.0005C37.5911 21.428 37.1995 20.8556 36.4176 20.4211L30.9368 17.3782H30.9364L30.9368 17.3779L36.4176 20.4207C37.2004 20.8551 37.5925 21.4284 37.5916 22.001Z" fill="#0C0C0C"/>
<path d="M37.5916 22C37.525 21.4814 37.1268 20.9739 36.4175 20.5801L30.8322 17.4795L30.9363 17.3777H30.9368L36.4175 20.4206C37.1995 20.855 37.5911 21.4275 37.5916 22Z" fill="url(#paint9_linear_63_2676)"/>
<path d="M11.7272 9.89258C11.7272 9.89214 11.7272 9.8917 11.7272 9.89127C11.7272 9.8917 11.7272 9.89214 11.7272 9.89258ZM11.732 9.71472C11.732 9.71384 11.732 9.71297 11.732 9.71209C11.732 9.71297 11.732 9.71384 11.732 9.71472ZM11.7324 9.70957C11.7324 9.70782 11.7324 9.70618 11.7324 9.70443C11.7324 9.70618 11.7324 9.70782 11.7324 9.70957ZM11.7324 9.70312C11.7972 8.57871 12.4229 7.92922 13.3081 7.92539C12.9243 7.92758 12.5901 8.05071 12.3284 8.28111V8.28067L12.3253 8.28373C12.2977 8.30803 12.2715 8.33375 12.2456 8.36024C11.9516 8.66419 11.7661 9.11952 11.7324 9.70312Z" fill="#0C0C0C"/>
<path d="M11.7272 10.0586V9.89868C11.7272 9.89649 11.7272 9.89474 11.7272 9.89266C11.7272 9.89223 11.7272 9.89179 11.7272 9.89135C11.7272 9.83104 11.7289 9.77205 11.732 9.7148C11.732 9.71393 11.732 9.71305 11.732 9.71218C11.732 9.71141 11.732 9.71053 11.7324 9.70966C11.7324 9.70791 11.7324 9.70627 11.7324 9.70452C11.7324 9.70408 11.7324 9.70364 11.7324 9.7032C11.7661 9.1196 11.9516 8.66427 12.2456 8.36032L12.3275 8.44066C11.9516 8.77209 11.7272 9.32482 11.7272 10.0586ZM12.3253 8.28382L12.3284 8.28075C12.3275 8.28207 12.3262 8.28294 12.3253 8.28382Z" fill="url(#paint10_linear_63_2676)"/>
<path d="M30.8322 17.4795L14.5735 8.4526C14.1228 8.20294 13.6962 8.08451 13.3164 8.08451C12.9291 8.08451 12.5913 8.20764 12.3275 8.43979L12.2456 8.35945C12.2715 8.33296 12.2977 8.30724 12.3253 8.28294C12.3262 8.28207 12.3275 8.28119 12.3284 8.28032C12.5901 8.04992 12.9243 7.92679 13.3081 7.9246C13.309 7.9246 13.3102 7.9246 13.3116 7.9246C13.3133 7.9246 13.3146 7.9246 13.3164 7.9246C13.6962 7.9246 14.1228 8.04302 14.5735 8.29279L30.9368 17.3774L30.9364 17.3777L30.8322 17.4795Z" fill="url(#paint11_linear_63_2676)"/>
</g>
<defs>
<linearGradient id="paint0_linear_63_2676" x1="24.9753" y1="9.64236" x2="6.61129" y2="28.4362" gradientUnits="userSpaceOnUse">
<stop stop-color="#00A0FF"/>
<stop offset="0.00657445" stop-color="#00A1FF"/>
<stop offset="0.2601" stop-color="#00BEFF"/>
<stop offset="0.5122" stop-color="#00D2FF"/>
<stop offset="0.7604" stop-color="#00DFFF"/>
<stop offset="1" stop-color="#00E3FF"/>
</linearGradient>
<linearGradient id="paint1_linear_63_2676" x1="38.4558" y1="22.0012" x2="11.3516" y2="22.0012" gradientUnits="userSpaceOnUse">
<stop stop-color="#FFE000"/>
<stop offset="0.4087" stop-color="#FFBD00"/>
<stop offset="0.7754" stop-color="#FFA500"/>
<stop offset="1" stop-color="#FF9C00"/>
</linearGradient>
<linearGradient id="paint2_linear_63_2676" x1="28.3662" y1="24.5132" x2="3.46325" y2="49.999" gradientUnits="userSpaceOnUse">
<stop stop-color="#FF3A44"/>
<stop offset="1" stop-color="#C31162"/>
</linearGradient>
<linearGradient id="paint3_linear_63_2676" x1="8.73038" y1="0.302413" x2="19.8505" y2="11.6828" gradientUnits="userSpaceOnUse">
<stop stop-color="#32A071"/>
<stop offset="0.0685" stop-color="#2DA771"/>
<stop offset="0.4762" stop-color="#15CF74"/>
<stop offset="0.8009" stop-color="#06E775"/>
<stop offset="1" stop-color="#00F076"/>
</linearGradient>
<linearGradient id="paint4_linear_63_2676" x1="38.4555" y1="22.0015" x2="11.3522" y2="22.0015" gradientUnits="userSpaceOnUse">
<stop stop-color="#CCB300"/>
<stop offset="0.4087" stop-color="#CC9700"/>
<stop offset="0.7754" stop-color="#CC8400"/>
<stop offset="1" stop-color="#CC7D00"/>
</linearGradient>
<linearGradient id="paint5_linear_63_2676" x1="28.3662" y1="24.5132" x2="3.46325" y2="49.999" gradientUnits="userSpaceOnUse">
<stop stop-color="#CC2E36"/>
<stop offset="1" stop-color="#9C0E4E"/>
</linearGradient>
<linearGradient id="paint6_linear_63_2676" x1="24.9753" y1="9.64276" x2="6.61134" y2="28.4366" gradientUnits="userSpaceOnUse">
<stop stop-color="#008DE0"/>
<stop offset="0.00657445" stop-color="#008DE0"/>
<stop offset="0.2601" stop-color="#00A7E0"/>
<stop offset="0.5122" stop-color="#00B8E0"/>
<stop offset="0.7604" stop-color="#00C4E0"/>
<stop offset="1" stop-color="#00C7E0"/>
</linearGradient>
<linearGradient id="paint7_linear_63_2676" x1="28.3666" y1="24.5137" x2="3.46434" y2="50.0001" gradientUnits="userSpaceOnUse">
<stop stop-color="#E0333C"/>
<stop offset="1" stop-color="#AB0F56"/>
</linearGradient>
<linearGradient id="paint8_linear_63_2676" x1="38.4558" y1="22.0012" x2="11.3516" y2="22.0012" gradientUnits="userSpaceOnUse">
<stop stop-color="#E0C500"/>
<stop offset="0.4087" stop-color="#E0A600"/>
<stop offset="0.7754" stop-color="#E09100"/>
<stop offset="1" stop-color="#E08900"/>
</linearGradient>
<linearGradient id="paint9_linear_63_2676" x1="38.4558" y1="22.0011" x2="11.3516" y2="22.0011" gradientUnits="userSpaceOnUse">
<stop stop-color="#FFE840"/>
<stop offset="0.4087" stop-color="#FFCE40"/>
<stop offset="0.7754" stop-color="#FFBC40"/>
<stop offset="1" stop-color="#FFB540"/>
</linearGradient>
<linearGradient id="paint10_linear_63_2676" x1="24.9753" y1="9.64289" x2="6.61129" y2="28.4367" gradientUnits="userSpaceOnUse">
<stop stop-color="#40B8FF"/>
<stop offset="0.00657445" stop-color="#40B9FF"/>
<stop offset="0.2601" stop-color="#40CEFF"/>
<stop offset="0.5122" stop-color="#40DDFF"/>
<stop offset="0.7604" stop-color="#40E7FF"/>
<stop offset="1" stop-color="#40EAFF"/>
</linearGradient>
<linearGradient id="paint11_linear_63_2676" x1="8.73038" y1="0.30187" x2="19.8505" y2="11.6823" gradientUnits="userSpaceOnUse">
<stop stop-color="#65B895"/>
<stop offset="0.0685" stop-color="#62BD95"/>
<stop offset="0.4762" stop-color="#50DB97"/>
<stop offset="0.8009" stop-color="#44ED98"/>
<stop offset="1" stop-color="#40F498"/>
</linearGradient>
<clipPath id="clip0_63_2676">
<rect width="151.556" height="44" fill="white" transform="translate(0.444336)"/>
</clipPath>
</defs>
</svg>
