<svg width="80" height="80" viewBox="0 0 80 80" fill="none" xmlns="http://www.w3.org/2000/svg">
<rect width="80" height="80" rx="40" fill="#0754D2"/>
<path d="M50.2858 59.7548C50.3147 60.3304 50.1145 60.894 49.729 61.3224C49.3435 61.7509 48.8041 62.0093 48.2287 62.0412H31.7715C31.1961 62.0093 30.6567 61.7509 30.2712 61.3224C29.8858 60.894 29.6856 60.3304 29.7144 59.7548V43.7561C29.6856 43.1805 29.8858 42.6169 30.2712 42.1885C30.6567 41.76 31.1961 41.5016 31.7715 41.4697H48.2287C48.8041 41.5016 49.3435 41.76 49.729 42.1885C50.1145 42.6169 50.3147 43.1805 50.2858 43.7561V59.7548Z" stroke="white" stroke-width="1.95918"/>
<path d="M59.3293 32.3688C59.6911 32.3768 60.042 32.2448 60.3089 32.0005C60.4207 31.9002 60.5008 31.7695 60.5394 31.6244C60.578 31.4793 60.5735 31.326 60.5263 31.1835C58.1361 24.2558 49.8527 17.959 40 17.959C30.1472 17.959 21.8638 24.2538 19.4697 31.1835C19.4225 31.326 19.418 31.4793 19.4566 31.6244C19.4953 31.7695 19.5754 31.9002 19.6872 32.0005C19.954 32.245 20.3049 32.377 20.6668 32.3688H59.3293Z" stroke="white" stroke-width="1.95918"/>
<path d="M22.3674 32.3691L33.0822 41.4696" stroke="white" stroke-width="1.95918"/>
<path d="M40 32.3691V41.4696" stroke="white" stroke-width="1.95918"/>
<path d="M57.6327 32.3691L46.918 41.4696" stroke="white" stroke-width="1.95918"/>
<path d="M43.4287 41.4697H36.5715V50.2861H43.4287V41.4697Z" stroke="white" stroke-width="1.95918"/>
</svg>
