<svg width="80" height="80" viewBox="0 0 80 80" fill="none" xmlns="http://www.w3.org/2000/svg">
<rect width="80" height="80" rx="40" fill="#0754D2"/>
<path d="M32.6531 53.2244H20.898C20.1186 53.2244 19.3711 52.9147 18.82 52.3636C18.2688 51.8125 17.9592 51.065 17.9592 50.2856V29.7142C17.9592 28.9348 18.2688 28.1873 18.82 27.6361C19.3711 27.085 20.1186 26.7754 20.898 26.7754H50.2858C51.0652 26.7754 51.8127 27.085 52.3638 27.6361C52.9149 28.1873 53.2245 28.9348 53.2245 29.7142V32.6529" stroke="white" stroke-width="2"/>
<path d="M52.2763 27.5531L46.7494 19.2677C46.4816 18.866 46.119 18.5364 45.6936 18.3082C45.2682 18.0799 44.793 17.96 44.3102 17.959H26.8735C26.3897 17.959 25.9134 18.0785 25.4869 18.3068C25.0604 18.5351 24.6968 18.8652 24.4285 19.2677L18.9075 27.5531" stroke="white" stroke-width="2"/>
<path d="M35.5918 17.959V26.7753" stroke="white" stroke-width="2"/>
<path d="M45.8775 53.2246H38.5305V60.5715" stroke="white" stroke-width="2"/>
<path d="M60.8986 54.6607C60.1204 56.9348 58.6134 58.8885 56.6115 60.2187C54.6096 61.5489 52.2246 62.1813 49.8266 62.0176C47.4286 61.8539 45.1517 60.9034 43.3491 59.3136C41.5464 57.7237 40.3189 55.5834 39.8569 53.2246" stroke="white" stroke-width="2"/>
<path d="M54.6938 47.3469H62.0408V40" stroke="white" stroke-width="2"/>
<path d="M39.6729 45.9106C40.451 43.6365 41.958 41.6827 43.9599 40.3525C45.9618 39.0223 48.3468 38.39 50.7448 38.5537C53.1428 38.7173 55.4197 39.6678 57.2223 41.2577C59.025 42.8476 60.2525 44.9879 60.7145 47.3467" stroke="white" stroke-width="2"/>
</svg>
