<svg width="80" height="80" viewBox="0 0 80 80" fill="none" xmlns="http://www.w3.org/2000/svg">
<rect width="80" height="80" rx="40" fill="#0754D2"/>
<path d="M59.5 17.5H20.5C18.8431 17.5 17.5 18.8431 17.5 20.5V59.5C17.5 61.1569 18.8431 62.5 20.5 62.5H59.5C61.1569 62.5 62.5 61.1569 62.5 59.5V20.5C62.5 18.8431 61.1569 17.5 59.5 17.5Z" stroke="white" stroke-width="2"/>
<path d="M52 26.5H28C27.1716 26.5 26.5 27.1716 26.5 28V52C26.5 52.8284 27.1716 53.5 28 53.5H52C52.8284 53.5 53.5 52.8284 53.5 52V28C53.5 27.1716 52.8284 26.5 52 26.5Z" stroke="white" stroke-width="2"/>
<path d="M18.3821 18.3799L26.9441 26.9439" stroke="white" stroke-width="2"/>
<path d="M53.0581 26.9439L61.6221 18.3799" stroke="white" stroke-width="2"/>
<path d="M53.0581 53.0576L61.6221 61.6196" stroke="white" stroke-width="2"/>
<path d="M26.9419 53.0576L18.3799 61.6196" stroke="white" stroke-width="2"/>
<path d="M26.5 35.5H53.5" stroke="white" stroke-width="2"/>
<path d="M26.5 44.5H53.5" stroke="white" stroke-width="2"/>
</svg>
