<svg width="80" height="80" viewBox="0 0 80 80" fill="none" xmlns="http://www.w3.org/2000/svg">
<rect width="80" height="80" rx="40" fill="#0754D2"/>
<path d="M46.3673 32.3453V25.0963C46.3673 23.5375 45.748 22.0425 44.6458 20.9402C43.5436 19.838 42.0485 19.2188 40.4898 19.2188H24.3265C22.7677 19.2188 21.2727 19.838 20.1705 20.9402C19.0682 22.0425 18.449 23.5375 18.449 25.0963V33.9126C18.449 35.4715 19.0682 36.9665 20.1705 38.0688C21.2727 39.171 22.7677 39.7901 24.3265 39.7901V47.137L31.6735 39.7901H36.7536" stroke="white" stroke-width="2"/>
<path d="M25.0612 30.2311C24.6555 30.2311 24.3265 29.9022 24.3265 29.4964C24.3265 29.0906 24.6555 28.7617 25.0612 28.7617" stroke="white" stroke-width="2"/>
<path d="M25.0613 30.2311C25.467 30.2311 25.796 29.9022 25.796 29.4964C25.796 29.0906 25.467 28.7617 25.0613 28.7617" stroke="white" stroke-width="2"/>
<path d="M32.4082 30.2311C32.0024 30.2311 31.6735 29.9022 31.6735 29.4964C31.6735 29.0906 32.0024 28.7617 32.4082 28.7617" stroke="white" stroke-width="2"/>
<path d="M32.4082 30.2311C32.814 30.2311 33.1429 29.9022 33.1429 29.4964C33.1429 29.0906 32.814 28.7617 32.4082 28.7617" stroke="white" stroke-width="2"/>
<path d="M39.7551 30.2311C39.3493 30.2311 39.0204 29.9022 39.0204 29.4964C39.0204 29.0906 39.3493 28.7617 39.7551 28.7617" stroke="white" stroke-width="2"/>
<path d="M39.7551 30.2311C40.1609 30.2311 40.4898 29.9022 40.4898 29.4964C40.4898 29.0906 40.1609 28.7617 39.7551 28.7617" stroke="white" stroke-width="2"/>
<path d="M41.3381 56.7468H40.5289C39.6722 56.7468 38.8503 56.4067 38.2437 55.8015C37.6374 55.1961 37.2959 54.3748 37.2943 53.518V50.2776C37.2969 49.4214 37.6389 48.6011 38.2451 47.9967C38.8515 47.3921 39.6728 47.0527 40.5289 47.0527H41.3381C41.5524 47.0531 41.7577 47.1387 41.909 47.2904C42.0602 47.442 42.1452 47.6475 42.1452 47.8619V55.9474C42.1427 56.16 42.0565 56.363 41.9054 56.5125C41.7544 56.6621 41.5506 56.7462 41.3381 56.7468Z" stroke="white" stroke-width="2"/>
<path d="M58.3164 56.7468H57.5092C57.403 56.7468 57.2978 56.7258 57.1997 56.6851C57.1013 56.6445 57.0122 56.585 56.9371 56.5097C56.8619 56.4347 56.8023 56.3454 56.7616 56.2472C56.721 56.1491 56.7001 56.0439 56.7001 55.9377V47.8521C56.7001 47.6374 56.7853 47.4317 56.9371 47.2798C57.0888 47.1282 57.2947 47.043 57.5092 47.043H58.3164C59.1743 47.043 59.997 47.3837 60.6035 47.9902C61.2103 48.597 61.551 49.4197 61.551 50.2776V53.5181C61.5494 54.3748 61.208 55.1961 60.6016 55.8015C59.995 56.4067 59.1733 56.7468 58.3164 56.7468Z" stroke="white" stroke-width="2"/>
<path d="M40.5289 47.0529C40.5289 45.885 40.7589 44.7285 41.206 43.6494C41.6531 42.5703 42.3083 41.5899 43.1343 40.7641C43.9602 39.9383 44.9408 39.2834 46.0199 38.8367C47.0991 38.3898 48.2556 38.16 49.4236 38.1602C51.7821 38.1602 54.044 39.097 55.7118 40.7649C57.3795 42.4325 58.3164 44.6944 58.3164 47.0529" stroke="white" stroke-width="2"/>
<path d="M52.6564 60.7889H55.0858C55.9437 60.7889 56.7663 60.448 57.3729 59.8414C57.9797 59.2348 58.3204 58.412 58.3204 57.5543V56.7471" stroke="white" stroke-width="2"/>
</svg>
