<svg width="20" height="20" viewBox="0 0 20 20" fill="none" xmlns="http://www.w3.org/2000/svg">
<path d="M5 15.9374H13.2675C13.5627 15.9375 13.8485 15.833 14.0742 15.6424C14.2997 15.4519 14.4506 15.1878 14.5 14.8966L16.6975 1.97994C16.7471 1.68898 16.898 1.42495 17.1236 1.23461C17.3492 1.04426 17.6348 0.939875 17.93 0.939941H18.75" stroke="#0C0C0C" stroke-width="1.5"/>
<path d="M6.5625 18.4375C6.38991 18.4375 6.25 18.2976 6.25 18.125C6.25 17.9524 6.38991 17.8125 6.5625 17.8125" stroke="#0C0C0C" stroke-width="1.5"/>
<path d="M6.5625 18.4375C6.73509 18.4375 6.875 18.2976 6.875 18.125C6.875 17.9524 6.73509 17.8125 6.5625 17.8125" stroke="#0C0C0C" stroke-width="1.5"/>
<path d="M12.8125 18.4375C12.6399 18.4375 12.5 18.2976 12.5 18.125C12.5 17.9524 12.6399 17.8125 12.8125 17.8125" stroke="#0C0C0C" stroke-width="1.5"/>
<path d="M12.8125 18.4375C12.9851 18.4375 13.125 18.2976 13.125 18.125C13.125 17.9524 12.9851 17.8125 12.8125 17.8125" stroke="#0C0C0C" stroke-width="1.5"/>
<path d="M14.9607 12.1876H4.90153C4.34409 12.1875 3.80267 12.0012 3.36329 11.6581C2.92392 11.3151 2.61179 10.835 2.47653 10.2943L1.26819 5.46091C1.24513 5.36873 1.2434 5.27252 1.26311 5.17957C1.28283 5.08662 1.32348 4.99939 1.38197 4.92451C1.44045 4.84963 1.51524 4.78907 1.60066 4.74743C1.68607 4.7058 1.77984 4.68419 1.87486 4.68424H16.2365" stroke="#0C0C0C" stroke-width="1.5"/>
</svg>
