<svg width="148" height="24" viewBox="0 0 148 24" fill="none" xmlns="http://www.w3.org/2000/svg">
<path d="M7.89633 3.68003H13.2527V12.7513C13.27 15.6368 10.54 17.3647 7.87905 17.3647C5.16631 17.3647 3.62851 14.8247 3.62851 11.8701H0V12.0602C0 16.8118 3.16199 20.855 7.87905 20.855C12.5961 20.855 16.8812 17.6757 16.8812 12.9241V0.207031H7.89633V3.68003Z" fill="#0754D2"/>
<path d="M27.0929 5.4248C22.6005 5.4248 19.2139 8.75958 19.2139 13.1656C19.2139 17.5717 22.6005 20.8892 27.0929 20.8892C31.5681 20.8892 34.9374 17.5717 34.9374 13.1656C34.9374 8.7423 31.5681 5.4248 27.0929 5.4248ZM27.0929 17.4507C24.6221 17.4507 22.8424 15.6538 22.8424 13.1656C22.8424 10.6602 24.6394 8.84598 27.0929 8.84598C29.5465 8.84598 31.3262 10.6602 31.3262 13.1656C31.3262 15.6365 29.5465 17.4507 27.0929 17.4507Z" fill="#0754D2"/>
<path d="M54.0992 13.2873C53.0107 15.8963 50.5917 17.5205 47.7925 17.5205C43.9567 17.5205 40.9502 14.4622 40.9502 10.54C40.9502 6.61771 43.9394 3.5594 47.758 3.5594C50.5225 3.5594 53.0107 5.21815 54.0992 7.79266L54.3929 8.46653L57.7968 7.20519L57.5031 6.46221C55.948 2.53996 52.1467 0 47.7925 0C41.9005 0 37.2871 4.61339 37.2871 10.5054C37.2871 16.3974 41.9005 21.0108 47.7925 21.0108C52.1467 21.0108 55.948 18.4709 57.5031 14.514L57.7968 13.7711L54.3929 12.5616L54.0992 13.2873Z" fill="#0754D2"/>
<path d="M67.1794 5.56385C65.538 5.56385 64.0866 6.03037 62.9289 6.91158V0.345703H59.3695V20.7345H62.9289V13.2356C62.9289 11.1794 64.2939 9.0023 66.8166 9.0023C68.6827 9.0023 69.6676 10.16 69.6676 12.3716V20.7345H73.227V12.1297C73.227 8.01742 70.9635 5.56385 67.1794 5.56385Z" fill="#0754D2"/>
<path d="M86.9631 6.79025C85.8054 5.97816 84.4059 5.56348 82.8335 5.56348C78.4447 5.56348 75.1445 8.88097 75.1445 13.287C75.1445 17.6931 78.4448 21.0278 82.799 21.0278C84.354 21.0278 85.7882 20.5959 86.9458 19.7665V20.7341H90.5052V5.83993H86.9458V6.79025H86.9631ZM82.8681 17.5894C80.5355 17.5894 78.773 15.7406 78.773 13.2697C78.773 10.7816 80.5009 8.98464 82.8681 8.98464C85.2525 8.98464 87.0495 10.8335 87.0495 13.2697C87.0495 15.7406 85.2525 17.5894 82.8681 17.5894Z" fill="#0754D2"/>
<path d="M101.408 5.56385C99.767 5.56385 98.3156 6.03037 97.1579 6.91158V0.345703H93.5985V20.7345H97.1579V13.2356C97.1579 11.1794 98.5229 9.0023 101.046 9.0023C102.912 9.0023 103.897 10.16 103.897 12.3716V20.7345H107.456V12.1297C107.456 8.01742 105.192 5.56385 101.408 5.56385Z" fill="#0754D2"/>
<path d="M117.287 5.56348C112.795 5.56348 109.408 8.89825 109.408 13.3043C109.408 17.7103 112.795 21.0278 117.287 21.0278C121.762 21.0278 125.132 17.7103 125.132 13.3043C125.132 8.89825 121.762 5.56348 117.287 5.56348ZM117.287 17.5894C114.816 17.5894 113.037 15.7924 113.037 13.3043C113.037 10.7989 114.834 8.98464 117.287 8.98464C119.741 8.98464 121.521 10.7989 121.521 13.3043C121.521 15.7924 119.741 17.5894 117.287 17.5894Z" fill="#0754D2"/>
<path d="M126.791 19.6285C126.635 19.473 126.549 19.2656 126.549 19.0237C126.549 18.7818 126.635 18.5917 126.791 18.4362C126.946 18.2807 127.154 18.1943 127.378 18.1943C127.603 18.1943 127.793 18.2807 127.948 18.4362C128.104 18.5917 128.19 18.7991 128.19 19.0237C128.19 19.2656 128.104 19.4557 127.948 19.6285C127.793 19.784 127.603 19.8704 127.378 19.8704C127.154 19.8704 126.946 19.784 126.791 19.6285Z" fill="#0C0C0C"/>
<path d="M132.613 11.3697C133.218 10.9723 133.961 10.7822 134.808 10.7822C135.603 10.7822 136.328 10.9723 136.985 11.3524C137.624 11.7326 138.143 12.2509 138.505 12.9421C138.868 13.6332 139.058 14.428 139.058 15.3438C139.058 16.2596 138.868 17.0544 138.505 17.7455C138.143 18.4367 137.641 18.9723 136.985 19.3524C136.346 19.7326 135.62 19.9226 134.808 19.9226C133.978 19.9226 133.253 19.7326 132.631 19.3351C132.009 18.9377 131.559 18.4367 131.283 17.8492V24.0004H130.16V10.9032H131.283V12.8557C131.559 12.2509 132.009 11.7671 132.613 11.3697ZM137.451 13.4086C137.158 12.8729 136.778 12.4583 136.276 12.1818C135.775 11.9053 135.205 11.7671 134.583 11.7671C133.978 11.7671 133.425 11.9053 132.907 12.1991C132.406 12.4928 132.009 12.9075 131.715 13.4604C131.421 13.9961 131.283 14.6354 131.283 15.3438C131.283 16.0522 131.421 16.6915 131.715 17.2272C132.009 17.7628 132.406 18.1948 132.907 18.4885C133.408 18.7822 133.961 18.9205 134.583 18.9205C135.205 18.9205 135.775 18.7822 136.276 18.4885C136.778 18.1948 137.175 17.7801 137.451 17.2272C137.745 16.6742 137.883 16.0349 137.883 15.3092C137.883 14.5835 137.745 13.9615 137.451 13.4086Z" fill="#0C0C0C"/>
<path d="M145.952 19.7843L142.289 15.8102V19.7843H141.149V4.12988H142.289V14.8772L145.866 10.9031H147.456L143.24 15.3264L147.49 19.7843H145.952Z" fill="#0C0C0C"/>
</svg>
